<svg xmlns="http://www.w3.org/2000/svg" viewBox="0 0 192 192" width="192" height="192">
  <!-- Background -->
  <rect width="192" height="192" rx="28" fill="#050510"/>
  <!-- Table body -->
  <rect x="46" y="14" width="100" height="164" rx="12" fill="#0a0a20" stroke="#00aaff" stroke-width="2.5"/>
  <!-- Bumpers -->
  <circle cx="80" cy="64" r="13" fill="#ff6600"/>
  <circle cx="80" cy="64" r="9"  fill="#ff9900"/>
  <circle cx="80" cy="64" r="5"  fill="#ffcc00"/>
  <circle cx="112" cy="64" r="13" fill="#ff6600"/>
  <circle cx="112" cy="64" r="9"  fill="#ff9900"/>
  <circle cx="112" cy="64" r="5"  fill="#ffcc00"/>
  <circle cx="96" cy="90" r="13" fill="#ff6600"/>
  <circle cx="96" cy="90" r="9"  fill="#ff9900"/>
  <circle cx="96" cy="90" r="5"  fill="#ffcc00"/>
  <!-- Ball -->
  <circle cx="96" cy="128" r="9" fill="#e0e8ff"/>
  <circle cx="92" cy="124" r="3" fill="white" opacity="0.6"/>
  <!-- Flippers -->
  <path d="M60 158 L86 150" stroke="#00aaff" stroke-width="7" stroke-linecap="round"/>
  <path d="M132 158 L106 150" stroke="#00aaff" stroke-width="7" stroke-linecap="round"/>
  <!-- Plunger lane -->
  <rect x="130" y="100" width="6" height="60" rx="3" fill="#334"/>
  <!-- Glow overlay -->
  <circle cx="80"  cy="64"  r="13" fill="#ff6600" opacity="0.25"/>
  <circle cx="112" cy="64"  r="13" fill="#ff6600" opacity="0.25"/>
  <circle cx="96"  cy="90"  r="13" fill="#ff6600" opacity="0.25"/>
  <circle cx="96"  cy="128" r="9"  fill="#aabbff" opacity="0.3"/>
</svg>
