<svg xmlns="http://www.w3.org/2000/svg" viewBox="0 0 512 512" width="512" height="512">
  <!-- Background -->
  <rect width="512" height="512" rx="72" fill="#050510"/>
  <!-- Table body -->
  <rect x="122" y="36" width="268" height="440" rx="32" fill="#0a0a20" stroke="#00aaff" stroke-width="6"/>
  <!-- DMD display -->
  <rect x="142" y="56" width="228" height="52" rx="6" fill="#060100" stroke="#7a3000" stroke-width="2"/>
  <text x="256" y="89" text-anchor="middle" fill="#ff8800" font-family="monospace" font-size="22" letter-spacing="3">FUTURE PINBALL</text>
  <!-- Bumpers -->
  <circle cx="210" cy="190" r="34" fill="#ff6600"/>
  <circle cx="210" cy="190" r="24" fill="#ff9900"/>
  <circle cx="210" cy="190" r="12" fill="#ffcc00"/>
  <circle cx="302" cy="190" r="34" fill="#ff6600"/>
  <circle cx="302" cy="190" r="24" fill="#ff9900"/>
  <circle cx="302" cy="190" r="12" fill="#ffcc00"/>
  <circle cx="256" cy="256" r="34" fill="#ff6600"/>
  <circle cx="256" cy="256" r="24" fill="#ff9900"/>
  <circle cx="256" cy="256" r="12" fill="#ffcc00"/>
  <!-- Ball -->
  <circle cx="256" cy="340" r="24" fill="#d0d8ff"/>
  <circle cx="244" cy="328" r="8" fill="white" opacity="0.5"/>
  <!-- Flippers -->
  <path d="M150 428 L225 408" stroke="#00aaff" stroke-width="18" stroke-linecap="round"/>
  <path d="M362 428 L287 408" stroke="#00aaff" stroke-width="18" stroke-linecap="round"/>
  <!-- Plunger lane divider -->
  <rect x="348" y="260" width="14" height="170" rx="7" fill="#1a2a40"/>
  <!-- Glow effects -->
  <circle cx="210" cy="190" r="34" fill="#ff6600" opacity="0.2"/>
  <circle cx="302" cy="190" r="34" fill="#ff6600" opacity="0.2"/>
  <circle cx="256" cy="256" r="34" fill="#ff6600" opacity="0.2"/>
  <circle cx="256" cy="340" r="24" fill="#8899ff" opacity="0.25"/>
</svg>
